<svg xmlns="http://www.w3.org/2000/svg" width="229.661" height="60.789" viewBox="0 0 229.661 60.789"><defs><style>.a{fill:#c1983d;}.b{fill:#414042;}</style></defs><g transform="translate(-446 -15.008)"><g transform="translate(206.806 -1193.607)"><g transform="translate(415.194 1208.615)"><path class="a" d="M205.2,1269.006l-6.147,3.367-6.147-3.367.053-39.985-20.715,12,.031,20.472,12.2,7.075v-25.651l-3.832,2.523v16.475l-4.539-2.632-.024-16.055,13.038-7.554-.047,35.6,9.982,5.468,9.982-5.468-.047-35.6,13.039,7.554-.025,16.055-4.539,2.632v-16.449l-3.832-2.555v25.657l12.2-7.075.032-20.472-20.716-12Z" transform="translate(-172.213 -1215.954)"/><path class="a" d="M199.038,1208.631v-.015l-.013.008-.013-.008v.015l-26.817,15.422v4.385l25.077-14.387-.025,44.911,1.88,1.046,1.952-1.044.025-44.728,24.753,14.2v-4.385Z" transform="translate(-172.194 -1208.615)"/></g></g><g transform="translate(-770.768 -277.35)"><g transform="translate(1216.768 304.838)"><path class="b" d="M1225.577,311.534a1.457,1.457,0,1,0-1.445-1.469A1.3,1.3,0,0,0,1225.577,311.534Z" transform="translate(-1219.458 -306.22)"/><path class="b" d="M1253.984,332.2a1.458,1.458,0,1,0,1.422,1.445A1.3,1.3,0,0,0,1253.984,332.2Z" transform="translate(-1229.836 -314.835)"/><path class="b" d="M1240.231,318.849c0,1.354-.616,1.985-1.94,1.985h-7c-1.323,0-1.94-.631-1.94-1.985v-6.355l-2.615,1.4v7.881a3.3,3.3,0,0,1-.835,2.362,3.8,3.8,0,0,1-2.9,1.074,3.52,3.52,0,0,1-2.65-1.054,4.054,4.054,0,0,1-1.108-2.958,6.179,6.179,0,0,1,.987-3.354l.406-.64-2.774.6-.07.1a5.972,5.972,0,0,0-1.024,3.5,6.469,6.469,0,0,0,1.333,4.064,5.894,5.894,0,0,0,4.9,2.24,6.7,6.7,0,0,0,4.127-1.26,5.33,5.33,0,0,0,2.11-3.446,4.8,4.8,0,0,0,1.822.331h7.46a4.3,4.3,0,0,0,3.052-1.1,4.4,4.4,0,0,0,1.272-3.314v-6.424l-2.615,1.4Z" transform="translate(-1216.768 -307.635)"/><path class="b" d="M1249.376,332.2a1.458,1.458,0,1,0,1.423,1.445A1.3,1.3,0,0,0,1249.376,332.2Z" transform="translate(-1228.153 -314.835)"/><path class="b" d="M1264.8,321.937a3.856,3.856,0,0,1-.755,2.536,2.514,2.514,0,0,1-2.059.877,4.562,4.562,0,0,1-2.2-.605l-.47-.258v2.455l.169.089a6.058,6.058,0,0,0,2.842.728,4.625,4.625,0,0,0,3.67-1.606,6.437,6.437,0,0,0,1.436-4.353v-9.3l-2.638,1.395Z" transform="translate(-1232.314 -307.637)"/><path class="b" d="M1295.413,309.61a4.008,4.008,0,0,0-4.278,4.37v2.072c0,1.354-.616,1.985-1.94,1.985h-7c-1.323,0-1.94-.631-1.94-1.985V304.838l-2.614,1.4v9.884a4.567,4.567,0,0,0,1,3.013,4.119,4.119,0,0,0,3.328,1.4h7.46a4.321,4.321,0,0,0,2.969-1.028,4.6,4.6,0,0,0,3.156,1.028,4.114,4.114,0,0,0,3.18-1.346,5.862,5.862,0,0,0,1.373-4.106,6.121,6.121,0,0,0-1.073-3.734A4.228,4.228,0,0,0,1295.413,309.61Zm2.1,5.429a3.934,3.934,0,0,1-.554,2.259,1.634,1.634,0,0,1-1.431.739c-1.214,0-1.778-.579-1.778-1.824v-2.141c0-1.779.949-1.985,1.663-1.985a1.774,1.774,0,0,1,1.518.736A3.664,3.664,0,0,1,1297.513,315.039Z" transform="translate(-1239.007 -304.838)"/><path class="b" d="M1350.8,318.851c0,1.354-.609,1.985-1.917,1.985H1347.8c-1.307,0-1.915-.631-1.915-1.985v-5.564l-2.638,1.364v4.2c0,1.354-.609,1.985-1.917,1.985h-1.082c-1.307,0-1.917-.631-1.917-1.985v-4.813l-2.615,1.4v6.338a3.3,3.3,0,0,1-.835,2.362,3.805,3.805,0,0,1-2.9,1.074,3.521,3.521,0,0,1-2.65-1.054,4.054,4.054,0,0,1-1.108-2.958,6.178,6.178,0,0,1,.986-3.354l.406-.64-2.773.6-.07.1a5.967,5.967,0,0,0-1.025,3.5,6.466,6.466,0,0,0,1.334,4.064,5.894,5.894,0,0,0,4.9,2.24,6.7,6.7,0,0,0,4.127-1.26,5.332,5.332,0,0,0,2.11-3.446,4.791,4.791,0,0,0,1.822.331h1.519a4.272,4.272,0,0,0,3.015-1.061,4.206,4.206,0,0,0,3,1.061h1.543a4.3,4.3,0,0,0,3.052-1.1,4.4,4.4,0,0,0,1.272-3.314V312.5l-2.638,1.395Z" transform="translate(-1256.581 -307.637)"/><path class="b" d="M1467.956,307.761a1.457,1.457,0,1,0-1.445-1.469A1.3,1.3,0,0,0,1467.956,307.761Z" transform="translate(-1308.006 -304.841)"/><path class="b" d="M1433.252,316.052c0,1.354-.616,1.985-1.939,1.985h-4.122c-1.307,0-1.916-.631-1.916-1.985V315.8a5.429,5.429,0,0,0-1.545-3.956,5.934,5.934,0,0,0-3.908-1.662l4.552-5.13H1421.5l-5.218,5.791v2.538l.43-.162a6.586,6.586,0,0,1,2.328-.44,4.16,4.16,0,0,1,2.424.683,2.644,2.644,0,0,1,1.2,2.362v.208c0,1.37-.6,2.008-1.893,2.008h-12.042c-1.417,0-2.077-.7-2.077-2.193V309.7l-2.615,1.4v4.956c0,1.354-.616,1.985-1.94,1.985h-1.082c-1.307,0-1.915-.631-1.915-1.985v-5.567l-2.615,1.368v4.2c0,1.354-.616,1.985-1.94,1.985h-1.059c-1.323,0-1.94-.631-1.94-1.985v-4.813l-2.614,1.4v3.413c0,1.354-.609,1.985-1.916,1.985h-7.552c-1.323,0-1.939-.631-1.939-1.985V304.838l-2.614,1.4v9.884a4.567,4.567,0,0,0,1,3.013,4.119,4.119,0,0,0,3.328,1.4h7.989a3.9,3.9,0,0,0,3.021-1.181,3.948,3.948,0,0,0,3.012,1.181h1.592a4.359,4.359,0,0,1,5.96,0h1.592a3.9,3.9,0,0,0,3.023-1.222,4.137,4.137,0,0,0,3.144,1.222h12.388a4.811,4.811,0,0,1,6.033,0h4.559a4.3,4.3,0,0,0,3.052-1.1,4.4,4.4,0,0,0,1.272-3.314V309.7l-2.615,1.4Z" transform="translate(-1274.541 -304.838)"/><path class="b" d="M1463.349,307.761a1.457,1.457,0,1,0-1.445-1.469A1.3,1.3,0,0,0,1463.349,307.761Z" transform="translate(-1306.323 -304.841)"/></g><g transform="translate(1261.778 328.829)"><path class="a" d="M1290.566,353.292a2.1,2.1,0,0,1-.413,1.379,1.389,1.389,0,0,1-1.137.486,2.471,2.471,0,0,1-1.189-.326l-.141-.077v1.126l.051.027a3.11,3.11,0,0,0,1.46.374,2.365,2.365,0,0,0,1.875-.819,3.318,3.318,0,0,0,.737-2.241v-4.768l-1.244.657Z" transform="translate(-1287.686 -344.762)"/><path class="a" d="M1318.631,358.73a.695.695,0,1,0,.677.689A.615.615,0,0,0,1318.631,358.73Z" transform="translate(-1298.74 -348.517)"/><path class="a" d="M1310.6,350.236a.969.969,0,0,1-1.09,1.115h-.761c-.726,0-1.079-.364-1.079-1.115V350.1a2.784,2.784,0,0,0-.791-2.028,3.092,3.092,0,0,0-2.156-.861l2.386-2.689h-1.319l-2.678,2.973-.025.027v1.2l.129-.048a3.541,3.541,0,0,1,1.249-.235,2.253,2.253,0,0,1,1.314.37,1.457,1.457,0,0,1,.66,1.3v.109c0,.759-.348,1.127-1.066,1.127h-3.922v-2.2a2.285,2.285,0,0,0-.522-1.552,2.223,2.223,0,0,0-1.728-.673,2.3,2.3,0,0,0-1.726.684,2.966,2.966,0,0,0-.729,2.122,2.779,2.779,0,0,0,.579,1.815,2.7,2.7,0,0,0,2.039.918c.185.015.468.03.838.045a1.159,1.159,0,0,1-.45.791,2.019,2.019,0,0,1-2.284.049l-.14-.074v1.135l.052.027a3.1,3.1,0,0,0,1.46.362,2.67,2.67,0,0,0,1.681-.578,2.354,2.354,0,0,0,.925-1.7h4.025a2.435,2.435,0,0,1,3.17,0h.991a2.188,2.188,0,0,0,1.554-.559,2.242,2.242,0,0,0,.647-1.69v-3.256l-1.231.658Zm-12.3-1.738a1.066,1.066,0,0,1,.9-.416c.677,0,1.006.372,1.006,1.138v2.128q-.51-.023-.782-.056a1.393,1.393,0,0,1-1.46-1.587A1.934,1.934,0,0,1,1298.292,348.5Z" transform="translate(-1290.994 -343.328)"/><path class="a" d="M1316.21,358.73a.695.695,0,1,0,.676.689A.616.616,0,0,0,1316.21,358.73Z" transform="translate(-1297.855 -348.517)"/><path class="a" d="M1329.815,350.091c0,.824-.38,1.224-1.163,1.224h-.629a1.187,1.187,0,0,1-.882-.279,1.431,1.431,0,0,1-.294-.949,3.721,3.721,0,0,0-2.031-3.152l-.082-.048-.632,1.062.087.047a2.5,2.5,0,0,1,1.439,2.337,1.252,1.252,0,0,1-.178.775.757.757,0,0,1-.61.207h-2.211l-.607,1.171h3a1.584,1.584,0,0,0,1.355-.586,2.12,2.12,0,0,0,1.561.586h.8a2.3,2.3,0,0,0,1.651-.608,2.383,2.383,0,0,0,.67-1.775v-5.677l-1.244.658Z" transform="translate(-1300.23 -343.292)"/><path class="a" d="M1339.391,352.486h1.232v-8.059l-1.232.659Z" transform="translate(-1306.575 -343.292)"/><path class="a" d="M1353.908,351.628a1.954,1.954,0,0,1-.483,1.364,2.087,2.087,0,0,1-1.624.622,2.023,2.023,0,0,1-1.493-.565,2.145,2.145,0,0,1-.614-1.578,3.3,3.3,0,0,1,.541-1.823l.126-.2-1.3.288-.022.031a3.144,3.144,0,0,0-.512,1.809,3.239,3.239,0,0,0,.7,2.08,3.144,3.144,0,0,0,2.579,1.125,3.43,3.43,0,0,0,2.313-.786,2.976,2.976,0,0,0,1.038-2.371v-7.2l-1.244.658Z" transform="translate(-1309.912 -343.292)"/><path class="a" d="M1375.48,350.84a1.721,1.721,0,0,1-.474-1.269,1.559,1.559,0,0,1,.392-1.114,1.346,1.346,0,0,1,1.038-.412,2.2,2.2,0,0,1,1.8,1l.171.23v-1.3l-.017-.025a2.394,2.394,0,0,0-2.076-1.07,2.543,2.543,0,0,0-2.539,2.649,3.128,3.128,0,0,0,.5,1.78h-1.991c-.725,0-1.078-.364-1.078-1.115v-.4a3.394,3.394,0,0,0-.551-2.017,2.4,2.4,0,0,0-3.559-.2,3.177,3.177,0,0,0-.715,2.218v.4a.969.969,0,0,1-1.09,1.115h-.871a.969.969,0,0,1-1.09-1.115v-5.774l-1.231.659v5.152a2.33,2.33,0,0,0,.506,1.538,2.1,2.1,0,0,0,1.695.711h1.113a2.411,2.411,0,0,1,3.376.241,2.4,2.4,0,0,1,3.388-.241h6.81v-1.171h-2.237A1.719,1.719,0,0,1,1375.48,350.84Zm-5.5-1.052a2.284,2.284,0,0,1-.328,1.313.987.987,0,0,1-.859.455c-.791,0-1.176-.578-1.176-1.768,0-1.174.385-1.743,1.176-1.743S1369.976,348.615,1369.976,349.788Z" transform="translate(-1314.871 -343.292)"/><path class="a" d="M1394.7,343.97h-1.214a.522.522,0,0,1-.121-.316c0-.15.042-.3.353-.3a.761.761,0,0,1,.45.186l.154.118v-.776l-.041-.029a1.111,1.111,0,0,0-.635-.211.972.972,0,0,0-.7.287.923.923,0,0,0-.3.68,1.018,1.018,0,0,0,.067.364h-.235l-.38.711h2.212Z" transform="translate(-1325.832 -342.639)"/><path class="a" d="M1395.044,345.085v5.007c0,.824-.38,1.224-1.163,1.224h-.667V346l-1.232.658v4.657h-1.729l-.607,1.171h4.319a2.3,2.3,0,0,0,1.653-.608,2.385,2.385,0,0,0,.67-1.775v-5.677Z" transform="translate(-1324.935 -343.292)"/></g></g></g></svg>