<svg xmlns="http://www.w3.org/2000/svg" width="228.373" height="60.789" viewBox="0 0 228.373 60.789"><defs><style>.a{fill:#414042;}.b{fill:#c1983d;}</style></defs><g transform="translate(-172.194 -1208.615)"><g transform="translate(236.867 1223.388)"><g transform="translate(0 0)"><path class="a" d="M286.827,1232.293a1.061,1.061,0,0,1-.762,1.823h-4.749v13.98a1.148,1.148,0,1,1-2.3,0v-13.98h-4.771a1.06,1.06,0,1,1,0-2.12h11.816A1.033,1.033,0,0,1,286.827,1232.293Z" transform="translate(-273.188 -1231.796)"/><path class="a" d="M297.869,1248.913a1.11,1.11,0,0,1-.332-.817v-14.953a1.1,1.1,0,0,1,.332-.828,1.129,1.129,0,0,1,.817-.32h9.983a1.126,1.126,0,0,1,.817.3,1.04,1.04,0,0,1,.31.784.977.977,0,0,1-.31.751,1.151,1.151,0,0,1-.817.287h-8.834v5.367h6.339a1.134,1.134,0,0,1,.806.3,1.067,1.067,0,0,1,0,1.524,1.138,1.138,0,0,1-.806.3h-6.339v5.521h8.834a1.153,1.153,0,0,1,.817.287.979.979,0,0,1,.31.751,1.039,1.039,0,0,1-.31.784,1.124,1.124,0,0,1-.817.3h-9.983A1.11,1.11,0,0,1,297.869,1248.913Z" transform="translate(-281.945 -1231.796)"/><path class="a" d="M331.983,1247.389a1.307,1.307,0,0,1,.243.751,1.146,1.146,0,0,1-.288.773.971.971,0,0,1-.773.331,1.068,1.068,0,0,1-.884-.42l-4.793-6.648-5.08,6.737a1.084,1.084,0,0,1-.8.331.967.967,0,0,1-.761-.309,1.086,1.086,0,0,1-.277-.751,1.3,1.3,0,0,1,.265-.795l5.147-6.847-4.859-6.736a1.09,1.09,0,0,1-.221-.685,1.171,1.171,0,0,1,.288-.795.969.969,0,0,1,.773-.331.948.948,0,0,1,.817.331l4.748,6.581,4.947-6.581a1.063,1.063,0,0,1,.817-.331.945.945,0,0,1,.74.309,1.092,1.092,0,0,1,.276.751,1.372,1.372,0,0,1-.243.751l-5.036,6.714Z" transform="translate(-289.511 -1231.796)"/><path class="a" d="M355.607,1248.117a1.084,1.084,0,0,1-.331.8,1.111,1.111,0,0,1-.817.331,1.164,1.164,0,0,1-.629-.188,1.063,1.063,0,0,1-.431-.519l-1.237-3.092h-7.929l-1.259,3.092a1.219,1.219,0,0,1-.442.519,1.108,1.108,0,0,1-.618.188,1.056,1.056,0,0,1-.806-.343,1.141,1.141,0,0,1-.32-.806,1.441,1.441,0,0,1,.11-.508l6.206-14.819a1.12,1.12,0,0,1,1.082-.773,1.072,1.072,0,0,1,1.082.773l6.228,14.863A1.417,1.417,0,0,1,355.607,1248.117Zm-10.6-4.572h6.383l-3.158-7.862Z" transform="translate(-297.499 -1231.796)"/><path class="a" d="M367.528,1248.381a5.252,5.252,0,0,1-2.418-2.54,1.19,1.19,0,0,1-.111-.442.819.819,0,0,1,.243-.585,1.24,1.24,0,0,1,.662-.342.771.771,0,0,1,.221-.022,1.216,1.216,0,0,1,.674.209,1.28,1.28,0,0,1,.475.564,3.247,3.247,0,0,0,1.568,1.458,5.612,5.612,0,0,0,2.584.6,4.962,4.962,0,0,0,2.8-.762,2.381,2.381,0,0,0,1.149-2.087,2.823,2.823,0,0,0-.972-2.154,5.025,5.025,0,0,0-2.959-1.094,7.6,7.6,0,0,1-4.307-1.6,4.214,4.214,0,0,1-1.568-3.346,3.832,3.832,0,0,1,.806-2.44,5.038,5.038,0,0,1,2.209-1.568,8.687,8.687,0,0,1,3.147-.541,6.185,6.185,0,0,1,3.2.773,6.61,6.61,0,0,1,2.208,2.209,1.5,1.5,0,0,1,.265.8.935.935,0,0,1-.441.8,1.049,1.049,0,0,1-.574.154,1.221,1.221,0,0,1-.619-.166,1.132,1.132,0,0,1-.441-.453,4.2,4.2,0,0,0-1.491-1.513,4.468,4.468,0,0,0-2.264-.519,5.048,5.048,0,0,0-2.716.652,2.1,2.1,0,0,0-1.038,1.888,2.4,2.4,0,0,0,.927,1.921,6.348,6.348,0,0,0,3.313,1.016,6.925,6.925,0,0,1,4.108,1.6,4.554,4.554,0,0,1,1.457,3.523,4.387,4.387,0,0,1-.861,2.728,5.189,5.189,0,0,1-2.285,1.7,8.24,8.24,0,0,1-3.059.563A7.914,7.914,0,0,1,367.528,1248.381Z" transform="translate(-306.206 -1231.684)"/><path class="a" d="M414.5,1232.326a1.113,1.113,0,0,1,.331.817V1248.1a1.092,1.092,0,0,1-.342.817,1.122,1.122,0,0,1-.807.331,1.131,1.131,0,0,1-1.148-1.148v-10.977l-5.345,10.888a1.138,1.138,0,0,1-.993.574,1.1,1.1,0,0,1-1.06-.685l-5.279-10.579V1248.1a1.149,1.149,0,1,1-2.3,0v-14.953a1.147,1.147,0,0,1,2.164-.53l6.56,13.142,6.383-13.142a1.156,1.156,0,0,1,1.833-.287Z" transform="translate(-317.915 -1231.796)"/><path class="a" d="M442.037,1248.117a1.084,1.084,0,0,1-.331.8,1.111,1.111,0,0,1-.817.331,1.164,1.164,0,0,1-.629-.188,1.063,1.063,0,0,1-.431-.519l-1.237-3.092h-7.929l-1.259,3.092a1.219,1.219,0,0,1-.442.519,1.108,1.108,0,0,1-.618.188,1.056,1.056,0,0,1-.806-.343,1.141,1.141,0,0,1-.32-.806,1.441,1.441,0,0,1,.11-.508l6.206-14.819a1.121,1.121,0,0,1,1.082-.773,1.072,1.072,0,0,1,1.082.773l6.228,14.863A1.418,1.418,0,0,1,442.037,1248.117Zm-10.6-4.572h6.383l-3.158-7.862Z" transform="translate(-328.582 -1231.796)"/><path class="a" d="M464.33,1248.206a1,1,0,0,1-.3.74,1.088,1.088,0,0,1-.806.3,1.115,1.115,0,0,1-.994-.552l-3.8-6.1h-3.225v5.5a1.131,1.131,0,0,1-.32.817,1.155,1.155,0,0,1-1.977-.817v-14.953a1.1,1.1,0,0,1,.332-.828,1.129,1.129,0,0,1,.817-.32h3.975a6.16,6.16,0,0,1,2.927.684,4.968,4.968,0,0,1,2.01,1.922,5.531,5.531,0,0,1,.717,2.827,4.928,4.928,0,0,1-2.96,4.616l3.379,5.433A1.357,1.357,0,0,1,464.33,1248.206Zm-6.294-7.73a3.621,3.621,0,0,0,2.474-.85,2.786,2.786,0,0,0,.971-2.2,3.153,3.153,0,0,0-.971-2.385,3.437,3.437,0,0,0-2.474-.927h-2.827v6.36Z" transform="translate(-337.823 -1231.796)"/><path class="a" d="M473.662,1248.913a1.11,1.11,0,0,1-.332-.817v-14.953a1.1,1.1,0,0,1,.332-.828,1.143,1.143,0,0,1,1.965.828V1248.1a1.131,1.131,0,0,1-.32.817,1.187,1.187,0,0,1-1.645,0Z" transform="translate(-345.166 -1231.796)"/><path class="a" d="M482.754,1248.924a1.118,1.118,0,0,1-.32-.828v-14.953a1.118,1.118,0,0,1,.32-.828,1.122,1.122,0,0,1,1.292-.2,1.293,1.293,0,0,1,.4.3l9.629,12.81v-12.081a1.1,1.1,0,0,1,.331-.828,1.13,1.13,0,0,1,.818-.32,1.094,1.094,0,0,1,.806.32,1.121,1.121,0,0,1,.32.828V1248.1a1.121,1.121,0,0,1-.32.828,1.1,1.1,0,0,1-.806.32,1.361,1.361,0,0,1-.5-.1.805.805,0,0,1-.387-.3l-9.629-12.81V1248.1a1.129,1.129,0,0,1-.321.817,1.188,1.188,0,0,1-1.634.011Z" transform="translate(-348.44 -1231.796)"/><path class="a" d="M510.013,1248.913a1.11,1.11,0,0,1-.332-.817v-14.953a1.1,1.1,0,0,1,.332-.828,1.129,1.129,0,0,1,.817-.32h9.983a1.128,1.128,0,0,1,.817.3,1.04,1.04,0,0,1,.309.784.977.977,0,0,1-.309.751,1.153,1.153,0,0,1-.817.287h-8.835v5.367h6.339a1.134,1.134,0,0,1,.806.3,1.065,1.065,0,0,1,0,1.524,1.138,1.138,0,0,1-.806.3h-6.339v5.521h8.835a1.155,1.155,0,0,1,.817.287.978.978,0,0,1,.309.751,1.038,1.038,0,0,1-.309.784,1.126,1.126,0,0,1-.817.3H510.83A1.11,1.11,0,0,1,510.013,1248.913Z" transform="translate(-358.239 -1231.796)"/></g><g transform="translate(27.575 24.995)"><path class="b" d="M337.161,1268.114a5.261,5.261,0,0,0-2.61-.647h-2.276a.595.595,0,0,0-.611.61v8.885a.595.595,0,0,0,.611.611h2.276a5.254,5.254,0,0,0,2.61-.647,4.6,4.6,0,0,0,1.794-1.8,5.616,5.616,0,0,0,0-5.214A4.609,4.609,0,0,0,337.161,1268.114Zm1.227,4.4a4.165,4.165,0,0,1-.491,2.029,3.585,3.585,0,0,1-1.359,1.4,3.877,3.877,0,0,1-1.987.508h-1.665v-7.866h1.665a3.928,3.928,0,0,1,1.988.5,3.569,3.569,0,0,1,1.359,1.4A4.161,4.161,0,0,1,338.389,1272.513Z" transform="translate(-331.665 -1267.467)"/><path class="b" d="M348.224,1271.622a3.269,3.269,0,0,0-1.716-.453,3.412,3.412,0,0,0-1.772.466,3.236,3.236,0,0,0-1.219,1.3,3.98,3.98,0,0,0-.438,1.882,3.789,3.789,0,0,0,.464,1.871,3.324,3.324,0,0,0,1.29,1.3,3.767,3.767,0,0,0,3.143.222,3.541,3.541,0,0,0,1.1-.61.5.5,0,0,0,.178-.378.577.577,0,0,0-.213-.437.6.6,0,0,0-.765.032,2.094,2.094,0,0,1-.7.377,2.735,2.735,0,0,1-.879.15,2.426,2.426,0,0,1-1.69-.614,2.385,2.385,0,0,1-.756-1.477h4.975a.575.575,0,0,0,.409-.152.538.538,0,0,0,.163-.408,3.907,3.907,0,0,0-.412-1.81A3.1,3.1,0,0,0,348.224,1271.622Zm-3.941,2.58a2.419,2.419,0,0,1,.714-1.364,2.129,2.129,0,0,1,1.511-.562,2.032,2.032,0,0,1,1.474.561,2.323,2.323,0,0,1,.657,1.366Z" transform="translate(-334.156 -1268.275)"/><path class="b" d="M354.542,1272.606a2.223,2.223,0,0,1,1.178-.317,2.269,2.269,0,0,1,.962.2,2.462,2.462,0,0,1,.8.6.558.558,0,0,0,.761.129.546.546,0,0,0,.263-.449.5.5,0,0,0-.128-.34,3.272,3.272,0,0,0-2.656-1.256,3.38,3.38,0,0,0-1.767.472,3.315,3.315,0,0,0-1.23,1.3,3.91,3.91,0,0,0-.444,1.869,3.739,3.739,0,0,0,.464,1.846,3.461,3.461,0,0,0,1.275,1.308,3.562,3.562,0,0,0,1.829.478,3.369,3.369,0,0,0,2.377-.876.48.48,0,0,0,.166-.366.561.561,0,0,0-.222-.434.582.582,0,0,0-.769.042,2.279,2.279,0,0,1-1.553.513A2.375,2.375,0,0,1,354.6,1277a2.237,2.237,0,0,1-.84-.9,2.731,2.731,0,0,1-.3-1.291,2.941,2.941,0,0,1,.285-1.313A2.137,2.137,0,0,1,354.542,1272.606Z" transform="translate(-336.164 -1268.275)"/><path class="b" d="M366.994,1271.64a3.68,3.68,0,0,0-1.852-.472,3.717,3.717,0,0,0-1.858.471,3.382,3.382,0,0,0-1.3,1.309,3.916,3.916,0,0,0,0,3.723,3.412,3.412,0,0,0,1.3,1.3,3.906,3.906,0,0,0,3.717,0,3.416,3.416,0,0,0,1.3-1.3,3.9,3.9,0,0,0-.007-3.723A3.448,3.448,0,0,0,366.994,1271.64Zm.582,3.172a2.64,2.64,0,0,1-.314,1.289,2.306,2.306,0,0,1-.866.9,2.576,2.576,0,0,1-2.5,0,2.327,2.327,0,0,1-.879-.9,2.6,2.6,0,0,1-.32-1.288,2.633,2.633,0,0,1,.32-1.3,2.322,2.322,0,0,1,.879-.9,2.567,2.567,0,0,1,2.5,0,2.29,2.29,0,0,1,.866.9A2.675,2.675,0,0,1,367.576,1274.813Z" transform="translate(-338.179 -1268.275)"/><path class="b" d="M377.027,1271.8a.543.543,0,0,0-.379-.5,2.206,2.206,0,0,0-.889-.15,2.79,2.79,0,0,0-1.279.3,2.631,2.631,0,0,0-.764.587v-.217a.6.6,0,1,0-1.2,0v5.953a.6.6,0,1,0,1.2,0V1274a1.51,1.51,0,0,1,.558-1.224,2.214,2.214,0,0,1,1.473-.478,2.69,2.69,0,0,1,.292.012c.191.018.324.025.4.025a.694.694,0,0,0,.356-.078.5.5,0,0,0,.212-.308A.51.51,0,0,0,377.027,1271.8Z" transform="translate(-340.582 -1268.271)"/><path class="b" d="M383.688,1271.647a3.808,3.808,0,0,0-3.694,0,3.475,3.475,0,0,0-1.307,1.313,3.676,3.676,0,0,0-.478,1.853,3.731,3.731,0,0,0,.464,1.846,3.446,3.446,0,0,0,3.066,1.785,3.4,3.4,0,0,0,1.557-.36,3.281,3.281,0,0,0,.955-.729v.428a.57.57,0,0,0,.175.432.649.649,0,0,0,.872-.008.583.583,0,0,0,.173-.424v-2.97a3.692,3.692,0,0,0-.477-1.853A3.486,3.486,0,0,0,383.688,1271.647Zm.588,3.166a2.6,2.6,0,0,1-.319,1.288,2.369,2.369,0,0,1-.873.9,2.421,2.421,0,0,1-1.242.324,2.452,2.452,0,0,1-1.25-.325,2.337,2.337,0,0,1-.879-.9,2.757,2.757,0,0,1,0-2.578,2.38,2.38,0,0,1,.88-.9,2.427,2.427,0,0,1,1.249-.332,2.376,2.376,0,0,1,2.115,1.236A2.605,2.605,0,0,1,384.276,1274.813Z" transform="translate(-341.824 -1268.275)"/><path class="b" d="M392.137,1276.575H391.8a1.139,1.139,0,0,1-.886-.371,1.393,1.393,0,0,1-.349-.977v-3.257h1.311a.551.551,0,0,0,.4-.155.52.52,0,0,0,.155-.38.541.541,0,0,0-.155-.393.553.553,0,0,0-.4-.153h-1.311v-1.843a.595.595,0,0,0-.611-.61.574.574,0,0,0-.432.177.605.605,0,0,0-.166.434v1.843h-.7a.554.554,0,0,0-.406.154.543.543,0,0,0-.155.392.521.521,0,0,0,.155.38.554.554,0,0,0,.406.155h.7v3.257a2.7,2.7,0,0,0,.312,1.3,2.367,2.367,0,0,0,.869.916,2.394,2.394,0,0,0,1.262.34h.266a.658.658,0,0,0,.459-.17.559.559,0,0,0,.189-.428.622.622,0,0,0-.157-.432A.537.537,0,0,0,392.137,1276.575Z" transform="translate(-343.98 -1267.679)"/><path class="b" d="M396.185,1271.25a.595.595,0,0,0-.611.61v5.927a.593.593,0,0,0,.611.611.574.574,0,0,0,.432-.176.606.606,0,0,0,.165-.435v-5.927a.608.608,0,0,0-.165-.435A.577.577,0,0,0,396.185,1271.25Z" transform="translate(-345.614 -1268.293)"/><path class="b" d="M396.128,1267.806a.811.811,0,0,0-.573.222.76.76,0,0,0-.239.579.8.8,0,0,0,.229.574.763.763,0,0,0,.57.238.807.807,0,0,0,.813-.812.76.76,0,0,0-.239-.579A.8.8,0,0,0,396.128,1267.806Z" transform="translate(-345.558 -1267.541)"/><path class="b" d="M404.6,1271.64a3.678,3.678,0,0,0-1.852-.472,3.717,3.717,0,0,0-1.858.471,3.388,3.388,0,0,0-1.3,1.309,3.922,3.922,0,0,0,0,3.723,3.412,3.412,0,0,0,1.3,1.3,3.908,3.908,0,0,0,3.718,0,3.414,3.414,0,0,0,1.3-1.3,3.892,3.892,0,0,0-.007-3.723A3.443,3.443,0,0,0,404.6,1271.64Zm-1.852,5.683a2.452,2.452,0,0,1-1.25-.325,2.343,2.343,0,0,1-.879-.9,2.61,2.61,0,0,1-.32-1.288,2.641,2.641,0,0,1,.32-1.3,2.334,2.334,0,0,1,.879-.9,2.568,2.568,0,0,1,2.5,0,2.3,2.3,0,0,1,.866.9,2.671,2.671,0,0,1,.314,1.3,2.636,2.636,0,0,1-.314,1.289,2.316,2.316,0,0,1-.866.9A2.442,2.442,0,0,1,402.746,1277.324Z" transform="translate(-346.387 -1268.275)"/><path class="b" d="M415.182,1271.545a3.517,3.517,0,0,0-1.667-.393,3.261,3.261,0,0,0-1.338.276,3.125,3.125,0,0,0-.844.553v-.142a.608.608,0,0,0-.166-.435.577.577,0,0,0-.432-.176.594.594,0,0,0-.611.611v5.94a.572.572,0,0,0,.176.432.649.649,0,0,0,.865,0,.585.585,0,0,0,.167-.431v-3.741a1.511,1.511,0,0,1,.27-.875,1.861,1.861,0,0,1,.744-.625,2.448,2.448,0,0,1,1.067-.227,2.194,2.194,0,0,1,1.557.555,2.14,2.14,0,0,1,.587,1.628v3.286a.582.582,0,0,0,.174.424.6.6,0,0,0,.437.174.591.591,0,0,0,.6-.6v-3.286a3.635,3.635,0,0,0-.42-1.795A2.852,2.852,0,0,0,415.182,1271.545Z" transform="translate(-348.79 -1268.271)"/><path class="b" d="M435.426,1268.052a.613.613,0,0,0-.143-.411.508.508,0,0,0-.4-.173.56.56,0,0,0-.593.414l-2.086,7.286-1.975-7.014a.584.584,0,0,0-.221-.3.658.658,0,0,0-.721,0,.51.51,0,0,0-.216.294l-1.962,7.007-2.073-7.228a.594.594,0,0,0-.592-.46.54.54,0,0,0-.413.169.6.6,0,0,0-.16.429,1,1,0,0,0,.044.262l2.591,8.755a.675.675,0,0,0,.22.348.594.594,0,0,0,.772,0,.775.775,0,0,0,.232-.362l1.922-7.043,1.935,7.056a.689.689,0,0,0,.22.349.582.582,0,0,0,.385.142.592.592,0,0,0,.384-.134.734.734,0,0,0,.234-.368l2.58-8.747A1.037,1.037,0,0,0,435.426,1268.052Z" transform="translate(-351.789 -1267.467)"/><path class="b" d="M443.091,1271.64a3.678,3.678,0,0,0-1.852-.472,3.718,3.718,0,0,0-1.858.471,3.393,3.393,0,0,0-1.3,1.309,3.922,3.922,0,0,0,0,3.723,3.417,3.417,0,0,0,1.3,1.3,3.908,3.908,0,0,0,3.718,0,3.415,3.415,0,0,0,1.3-1.3,3.892,3.892,0,0,0-.007-3.723A3.438,3.438,0,0,0,443.091,1271.64Zm.583,3.172a2.636,2.636,0,0,1-.314,1.289,2.316,2.316,0,0,1-.866.9,2.575,2.575,0,0,1-2.5,0,2.333,2.333,0,0,1-.879-.9,2.6,2.6,0,0,1-.32-1.288,2.634,2.634,0,0,1,.32-1.3,2.322,2.322,0,0,1,.879-.9,2.566,2.566,0,0,1,2.5,0,2.3,2.3,0,0,1,.866.9A2.671,2.671,0,0,1,443.674,1274.813Z" transform="translate(-354.788 -1268.275)"/><path class="b" d="M452.746,1271.3a2.2,2.2,0,0,0-.888-.15,2.788,2.788,0,0,0-1.28.3,2.63,2.63,0,0,0-.764.588v-.218a.6.6,0,1,0-1.2,0v5.953a.6.6,0,1,0,1.2,0V1274a1.511,1.511,0,0,1,.558-1.224,2.214,2.214,0,0,1,1.472-.478,2.716,2.716,0,0,1,.293.012c.191.018.324.025.4.025a.69.69,0,0,0,.355-.078.49.49,0,0,0,.213-.308.534.534,0,0,0-.362-.646Z" transform="translate(-357.191 -1268.271)"/><path class="b" d="M458.488,1273.536l2.442-2.211a.52.52,0,0,0,.206-.4.593.593,0,0,0-.167-.378.532.532,0,0,0-.788-.038l-3.368,3.045v-5.486a.6.6,0,1,0-1.2,0v8.91a.573.573,0,0,0,.6.6.572.572,0,0,0,.6-.6v-1.932l.818-.742,2.523,3.1a.534.534,0,0,0,.434.222.629.629,0,0,0,.38-.142.557.557,0,0,0,.217-.43.534.534,0,0,0-.14-.365Z" transform="translate(-358.719 -1267.467)"/><path class="b" d="M469.1,1274.971a4.061,4.061,0,0,0-1.993-.768,3.559,3.559,0,0,1-1.343-.416.727.727,0,0,1,.025-1.248,1.836,1.836,0,0,1,1.046-.264,2.037,2.037,0,0,1,1.609.671.694.694,0,0,0,.527.227.506.506,0,0,0,.3-.081.5.5,0,0,0,.258-.44.7.7,0,0,0-.124-.362,2.689,2.689,0,0,0-1.044-.826,3.59,3.59,0,0,0-1.5-.295,3.151,3.151,0,0,0-1.857.528,1.765,1.765,0,0,0-.764,1.524,1.626,1.626,0,0,0,.657,1.3,4.061,4.061,0,0,0,1.907.726,3.463,3.463,0,0,1,1.354.435.782.782,0,0,1,.392.659.839.839,0,0,1-.4.7,2.265,2.265,0,0,1-1.262.282,2.981,2.981,0,0,1-1.064-.182,1.822,1.822,0,0,1-.754-.509.627.627,0,0,0-1.091.393.578.578,0,0,0,.157.369,3.036,3.036,0,0,0,1.209.776,4.436,4.436,0,0,0,1.543.273,3.813,3.813,0,0,0,1.448-.262,2.4,2.4,0,0,0,1.016-.745,1.79,1.79,0,0,0,.371-1.108A1.747,1.747,0,0,0,469.1,1274.971Z" transform="translate(-360.544 -1268.275)"/></g></g><g transform="translate(172.194 1208.615)"><path class="b" d="M205.2,1269.006l-6.147,3.367-6.147-3.367.053-39.985-20.715,12,.031,20.472,12.2,7.075v-25.651l-3.832,2.523v16.475l-4.539-2.632-.024-16.055,13.038-7.554-.047,35.6,9.982,5.468,9.982-5.468-.047-35.6,13.039,7.554-.025,16.055-4.539,2.632v-16.449l-3.832-2.555v25.657l12.2-7.075.032-20.472-20.716-12Z" transform="translate(-172.213 -1215.954)"/><path class="b" d="M199.038,1208.631v-.015l-.013.008-.013-.008v.015l-26.817,15.422v4.385l25.077-14.387-.025,44.911,1.88,1.046,1.952-1.044.025-44.728,24.753,14.2v-4.385Z" transform="translate(-172.194 -1208.615)"/></g></g></svg>